<?xml version="1.0" encoding="UTF-8"?>
<svg width="15px" height="20px" viewBox="0 0 15 20" version="1.1" xmlns="http://www.w3.org/2000/svg" xmlns:xlink="http://www.w3.org/1999/xlink">
    <!-- Generator: Sketch 48.2 (47327) - http://www.bohemiancoding.com/sketch -->
    <title>Shape</title>
    <desc>Created with Sketch.</desc>
    <defs></defs>
    <g id="01---Homepage" stroke="none" stroke-width="1" fill="none" fill-rule="evenodd" transform="translate(-582.000000, -639.000000)">
        <g id="Hero" transform="translate(150.000000, -329.000000)" fill="#62D0BD" fill-rule="nonzero">
            <g id="Content" transform="translate(0.000000, 528.000000)">
                <g id="ui-24px-glyph-1_lock" transform="translate(432.000000, 440.000000)">
                    <path d="M14.1666667,6.66666667 L12.5,6.66666667 L12.5,5 C12.5,2.2425 10.2575,0 7.5,0 C4.7425,0 2.5,2.2425 2.5,5 L2.5,6.66666667 L0.833333333,6.66666667 C0.373333333,6.66666667 0,7.04 0,7.5 L0,19.1666667 C0,19.6266667 0.373333333,20 0.833333333,20 L14.1666667,20 C14.6266667,20 15,19.6266667 15,19.1666667 L15,7.5 C15,7.04 14.6266667,6.66666667 14.1666667,6.66666667 Z M8.33333333,14.8466667 L8.33333333,16.6666667 L6.66666667,16.6666667 L6.66666667,14.8466667 C5.69916667,14.5016667 5,13.585 5,12.5 C5,11.1216667 6.12166667,10 7.5,10 C8.87833333,10 10,11.1216667 10,12.5 C10,13.585 9.30166667,14.5016667 8.33333333,14.8466667 Z M10.8333333,6.66666667 L4.16666667,6.66666667 L4.16666667,5 C4.16666667,3.16166667 5.66166667,1.66666667 7.5,1.66666667 C9.33833333,1.66666667 10.8333333,3.16166667 10.8333333,5 L10.8333333,6.66666667 Z" id="Shape"></path>
                </g>
            </g>
        </g>
    </g>
</svg>